<svg width="500" height="501" viewBox="0 0 500 501" fill="none" xmlns="http://www.w3.org/2000/svg">
<rect width="500" height="500" fill="white"/>
<path d="M332.562 285.781L301.156 336.719C294.073 335.469 287.51 334.375 281.469 333.438C275.531 332.5 269.646 331.615 263.812 330.781C258.083 330.052 252.198 329.271 246.156 328.438C240.115 327.604 233.604 326.615 226.625 325.469C223.917 324.948 221.208 324.583 218.5 324.375C215.896 324.062 213.24 323.906 210.531 323.906C204.802 323.906 199.281 324.688 193.969 326.25C188.76 327.812 183.76 330.26 178.969 333.594L174.125 328.438C176.312 326.562 178.188 324.323 179.75 321.719C181.312 319.115 182.615 316.354 183.656 313.438C184.802 310.417 185.635 307.396 186.156 304.375C186.677 301.354 186.938 298.49 186.938 295.781V203.594C186.938 189.01 189.49 175.417 194.594 162.812C199.698 150.208 206.729 139.271 215.688 130C224.75 120.625 235.375 113.281 247.562 107.969C259.854 102.552 273.135 99.8438 287.406 99.8438C291.99 99.8438 296.417 100.365 300.688 101.406C304.958 102.448 308.708 104.115 311.938 106.406C315.271 108.698 317.927 111.667 319.906 115.312C321.885 118.958 322.875 123.438 322.875 128.75C322.875 133.438 321.99 137.969 320.219 142.344C318.448 146.719 316 150.885 312.875 154.844C309.854 158.802 306.312 162.5 302.25 165.938C298.292 169.271 294.125 172.292 289.75 175C285.375 177.708 280.896 180 276.312 181.875C271.729 183.75 267.406 185.208 263.344 186.25L260.844 180.312C264.385 178.229 268.031 175.833 271.781 173.125C275.635 170.417 279.125 167.448 282.25 164.219C285.375 160.885 287.927 157.292 289.906 153.438C291.885 149.479 292.875 145.208 292.875 140.625C292.875 136.979 292.198 133.646 290.844 130.625C289.49 127.5 287.615 124.844 285.219 122.656C282.927 120.469 280.219 118.75 277.094 117.5C274.073 116.25 270.792 115.625 267.25 115.625C259.438 115.625 252.562 117.292 246.625 120.625C240.688 123.958 235.688 128.333 231.625 133.75C227.562 139.167 224.49 145.312 222.406 152.188C220.323 159.062 219.281 166.042 219.281 173.125V273.75C219.281 277.708 218.708 281.562 217.562 285.312C216.417 288.958 214.854 292.5 212.875 295.938C211 299.271 208.76 302.448 206.156 305.469C203.552 308.49 200.792 311.25 197.875 313.75C201.208 311.354 204.438 309.167 207.562 307.188C210.688 305.104 213.865 303.333 217.094 301.875C220.427 300.417 223.865 299.323 227.406 298.594C230.948 297.76 234.854 297.344 239.125 297.344C244.333 297.344 248.969 297.604 253.031 298.125C257.094 298.646 261.052 299.219 264.906 299.844C268.865 300.365 272.875 300.885 276.938 301.406C281 301.927 285.635 302.188 290.844 302.188C294.49 302.188 297.979 301.667 301.312 300.625C304.75 299.479 307.979 297.969 311 296.094C314.021 294.219 316.833 292.083 319.438 289.688C322.146 287.188 324.594 284.531 326.781 281.719L332.562 285.781Z" fill="black"/>
<line x1="12.5" x2="12.5" y2="500.031" stroke="black" stroke-width="25"/>
<line x1="500" y1="12.5" x2="3.05176e-06" y2="12.5001" stroke="black" stroke-width="25"/>
<line x1="487.5" y1="500.003" x2="487.5" stroke="black" stroke-width="25"/>
<line y1="487.5" x2="500" y2="487.5" stroke="black" stroke-width="25"/>
<path d="M259.876 350.315C248.972 350.315 240.101 359.186 240.101 370.09H251.966C251.966 365.728 255.515 362.18 259.876 362.18C264.238 362.18 267.786 365.728 267.786 370.09C267.786 374.451 264.238 378 259.876 378H176.82V389.865H259.876C270.78 389.865 279.652 380.994 279.652 370.09C279.652 359.186 270.78 350.315 259.876 350.315Z" fill="black"/>
<path d="M309.315 354.27C297.32 354.27 287.562 364.028 287.562 376.023C287.562 384.746 294.659 391.843 303.382 391.843C312.105 391.843 319.202 384.746 319.202 376.023H307.337C307.337 378.203 305.563 379.978 303.382 379.978C301.201 379.978 299.426 378.204 299.426 376.023C299.426 370.57 303.862 366.135 309.314 366.135C318.037 366.135 325.134 373.232 325.134 381.955C325.134 390.678 318.037 397.775 309.314 397.775H161V409.64H309.315C324.58 409.64 337 397.221 337 381.955C337 366.689 324.58 354.27 309.315 354.27Z" fill="black"/>
</svg>
