<svg width="1047" height="289" viewBox="0 0 1047 289" fill="none" xmlns="http://www.w3.org/2000/svg">
<path d="M89.2809 62.5152L110.479 65.2356C185.653 74.7344 235.326 81.0671 258.894 114.726C278.211 142.314 271.671 178.959 244.173 198.214C228.638 209.091 208.664 212.3 190.993 207.775C189.201 225.928 179.355 243.6 163.82 254.477C136.321 273.732 99.6491 267.344 80.332 239.756C56.7638 206.097 67.8021 157.254 84.5871 83.3649L89.2809 62.5152Z" fill="#FF6347"/>
<path d="M423.56 85.48V112.6H378.92V253H345.32V112.6H300.68V85.48H423.56ZM543.116 167.08C552.556 168.84 560.316 173.56 566.396 181.24C572.476 188.92 575.516 197.72 575.516 207.64C575.516 216.6 573.276 224.52 568.796 231.4C564.476 238.12 558.156 243.4 549.836 247.24C541.516 251.08 531.676 253 520.316 253H448.076V85.48H517.196C528.556 85.48 538.316 87.32 546.476 91C554.796 94.68 561.036 99.8 565.196 106.36C569.516 112.92 571.676 120.36 571.676 128.68C571.676 138.44 569.036 146.6 563.756 153.16C558.636 159.72 551.756 164.36 543.116 167.08ZM481.676 154.6H512.396C520.396 154.6 526.556 152.84 530.876 149.32C535.196 145.64 537.356 140.44 537.356 133.72C537.356 127 535.196 121.8 530.876 118.12C526.556 114.44 520.396 112.6 512.396 112.6H481.676V154.6ZM515.516 225.64C523.676 225.64 529.996 223.72 534.476 219.88C539.116 216.04 541.436 210.6 541.436 203.56C541.436 196.36 539.036 190.76 534.236 186.76C529.436 182.6 522.956 180.52 514.796 180.52H481.676V225.64H515.516ZM619.334 104.2C613.414 104.2 608.454 102.36 604.454 98.68C600.614 94.84 598.694 90.12 598.694 84.52C598.694 78.92 600.614 74.28 604.454 70.6C608.454 66.76 613.414 64.84 619.334 64.84C625.254 64.84 630.134 66.76 633.974 70.6C637.974 74.28 639.974 78.92 639.974 84.52C639.974 90.12 637.974 94.84 633.974 98.68C630.134 102.36 625.254 104.2 619.334 104.2ZM635.894 120.04V253H602.294V120.04H635.894ZM742.771 118.12C758.611 118.12 771.411 123.16 781.171 133.24C790.931 143.16 795.811 157.08 795.811 175V253H762.211V179.56C762.211 169 759.571 160.92 754.291 155.32C749.011 149.56 741.811 146.68 732.691 146.68C723.411 146.68 716.051 149.56 710.611 155.32C705.331 160.92 702.691 169 702.691 179.56V253H669.091V120.04H702.691V136.6C707.171 130.84 712.851 126.36 719.731 123.16C726.771 119.8 734.451 118.12 742.771 118.12ZM888.723 147.64H865.443V253H831.363V147.64H816.243V120.04H831.363V113.32C831.363 97 836.003 85 845.283 77.32C854.563 69.64 868.563 66.04 887.283 66.52V94.84C879.123 94.68 873.443 96.04 870.243 98.92C867.043 101.8 865.443 107 865.443 114.52V120.04H888.723V147.64ZM969.538 255.16C956.738 255.16 945.218 252.36 934.978 246.76C924.738 241 916.658 232.92 910.738 222.52C904.978 212.12 902.098 200.12 902.098 186.52C902.098 172.92 905.058 160.92 910.978 150.52C917.058 140.12 925.298 132.12 935.698 126.52C946.098 120.76 957.698 117.88 970.498 117.88C983.298 117.88 994.898 120.76 1005.3 126.52C1015.7 132.12 1023.86 140.12 1029.78 150.52C1035.86 160.92 1038.9 172.92 1038.9 186.52C1038.9 200.12 1035.78 212.12 1029.54 222.52C1023.46 232.92 1015.14 241 1004.58 246.76C994.178 252.36 982.498 255.16 969.538 255.16ZM969.538 225.88C975.618 225.88 981.298 224.44 986.578 221.56C992.018 218.52 996.338 214.04 999.538 208.12C1002.74 202.2 1004.34 195 1004.34 186.52C1004.34 173.88 1000.98 164.2 994.258 157.48C987.698 150.6 979.618 147.16 970.018 147.16C960.418 147.16 952.338 150.6 945.778 157.48C939.378 164.2 936.178 173.88 936.178 186.52C936.178 199.16 939.298 208.92 945.538 215.8C951.938 222.52 959.938 225.88 969.538 225.88Z" fill="black"/>
</svg>
