<svg width="1200" height="450" viewBox="0 0 1200 450" fill="none" xmlns="http://www.w3.org/2000/svg">
<rect width="1200" height="450" fill="white"/>
<path d="M140.281 118.515L161.479 121.235C236.653 130.734 286.326 137.067 309.894 170.726C329.211 198.314 322.671 234.959 295.173 254.214C279.638 265.091 259.664 268.3 241.993 263.775C240.201 281.928 230.355 299.6 214.82 310.477C187.321 329.732 150.649 323.344 131.332 295.756C107.764 262.097 118.802 213.254 135.587 139.365L140.281 118.515Z" fill="#FF6347"/>
<path d="M474.56 141.48V168.6H429.92V309H396.32V168.6H351.68V141.48H474.56ZM594.116 223.08C603.556 224.84 611.316 229.56 617.396 237.24C623.476 244.92 626.516 253.72 626.516 263.64C626.516 272.6 624.276 280.52 619.796 287.4C615.476 294.12 609.156 299.4 600.836 303.24C592.516 307.08 582.676 309 571.316 309H499.076V141.48H568.196C579.556 141.48 589.316 143.32 597.476 147C605.796 150.68 612.036 155.8 616.196 162.36C620.516 168.92 622.676 176.36 622.676 184.68C622.676 194.44 620.036 202.6 614.756 209.16C609.636 215.72 602.756 220.36 594.116 223.08ZM532.676 210.6H563.396C571.396 210.6 577.556 208.84 581.876 205.32C586.196 201.64 588.356 196.44 588.356 189.72C588.356 183 586.196 177.8 581.876 174.12C577.556 170.44 571.396 168.6 563.396 168.6H532.676V210.6ZM566.516 281.64C574.676 281.64 580.996 279.72 585.476 275.88C590.116 272.04 592.436 266.6 592.436 259.56C592.436 252.36 590.036 246.76 585.236 242.76C580.436 238.6 573.956 236.52 565.796 236.52H532.676V281.64H566.516ZM670.334 160.2C664.414 160.2 659.454 158.36 655.454 154.68C651.614 150.84 649.694 146.12 649.694 140.52C649.694 134.92 651.614 130.28 655.454 126.6C659.454 122.76 664.414 120.84 670.334 120.84C676.254 120.84 681.134 122.76 684.974 126.6C688.974 130.28 690.974 134.92 690.974 140.52C690.974 146.12 688.974 150.84 684.974 154.68C681.134 158.36 676.254 160.2 670.334 160.2ZM686.894 176.04V309H653.294V176.04H686.894ZM793.771 174.12C809.611 174.12 822.411 179.16 832.171 189.24C841.931 199.16 846.811 213.08 846.811 231V309H813.211V235.56C813.211 225 810.571 216.92 805.291 211.32C800.011 205.56 792.811 202.68 783.691 202.68C774.411 202.68 767.051 205.56 761.611 211.32C756.331 216.92 753.691 225 753.691 235.56V309H720.091V176.04H753.691V192.6C758.171 186.84 763.851 182.36 770.731 179.16C777.771 175.8 785.451 174.12 793.771 174.12ZM939.723 203.64H916.443V309H882.363V203.64H867.243V176.04H882.363V169.32C882.363 153 887.003 141 896.283 133.32C905.563 125.64 919.563 122.04 938.283 122.52V150.84C930.123 150.68 924.443 152.04 921.243 154.92C918.043 157.8 916.443 163 916.443 170.52V176.04H939.723V203.64ZM1020.54 311.16C1007.74 311.16 996.218 308.36 985.978 302.76C975.738 297 967.658 288.92 961.738 278.52C955.978 268.12 953.098 256.12 953.098 242.52C953.098 228.92 956.058 216.92 961.978 206.52C968.058 196.12 976.298 188.12 986.698 182.52C997.098 176.76 1008.7 173.88 1021.5 173.88C1034.3 173.88 1045.9 176.76 1056.3 182.52C1066.7 188.12 1074.86 196.12 1080.78 206.52C1086.86 216.92 1089.9 228.92 1089.9 242.52C1089.9 256.12 1086.78 268.12 1080.54 278.52C1074.46 288.92 1066.14 297 1055.58 302.76C1045.18 308.36 1033.5 311.16 1020.54 311.16ZM1020.54 281.88C1026.62 281.88 1032.3 280.44 1037.58 277.56C1043.02 274.52 1047.34 270.04 1050.54 264.12C1053.74 258.2 1055.34 251 1055.34 242.52C1055.34 229.88 1051.98 220.2 1045.26 213.48C1038.7 206.6 1030.62 203.16 1021.02 203.16C1011.42 203.16 1003.34 206.6 996.778 213.48C990.378 220.2 987.178 229.88 987.178 242.52C987.178 255.16 990.298 264.92 996.538 271.8C1002.94 278.52 1010.94 281.88 1020.54 281.88Z" fill="black"/>
</svg>
